<?xml version="1.0" encoding="utf-8"?>
<!-- Generator: Adobe Illustrator 27.0.1, SVG Export Plug-In . SVG Version: 6.00 Build 0)  -->
<svg version="1.1" id="Layer_2_00000080190626005731842130000013939054942094332549_"
	 xmlns="http://www.w3.org/2000/svg" xmlns:xlink="http://www.w3.org/1999/xlink" x="0px" y="0px" viewBox="0 0 24 24"
	 style="enable-background:new 0 0 24 24;" xml:space="preserve">
<style type="text/css">
	.st0{fill:#FFFFFF;}
</style>
<path class="st0" d="M22.9,1.1H1.1v21.8l0,0C5.5,13.2,13.2,5.5,22.9,1.1L22.9,1.1z"/>
<g>
	<path class="st0" d="M15.2,22.9l1.6-9.1h2.9c1.1,0,1.9,0.2,2.4,0.6c0.5,0.4,0.8,1,0.7,1.8c-0.1,0.9-0.6,1.6-1.6,2
		c0.4,0.1,0.6,0.4,0.8,0.7c0.2,0.3,0.3,0.8,0.3,1.2c-0.1,0.9-0.4,1.5-1,2s-1.5,0.7-2.5,0.7L15.2,22.9L15.2,22.9z M17.7,18.9
		l-0.4,2.5h1.5c0.5,0,0.8-0.1,1.1-0.3c0.3-0.2,0.5-0.5,0.5-0.9c0.1-0.4,0-0.7-0.2-0.9C20,19.1,19.8,19,19.4,19L17.7,18.9z M18,17.6
		h1.2c0.5,0,0.8-0.1,1.1-0.3c0.3-0.2,0.5-0.5,0.5-0.9c0.1-0.7-0.3-1.1-1.2-1.1h-1.4L18,17.6z"/>
</g>
</svg>
